<svg width="86" height="23" viewBox="0 0 86 23" fill="none" xmlns="http://www.w3.org/2000/svg">
<path d="M0.721591 18V0.545454H11.9034V3.19602H3.88352V7.93466H11.1364V10.5852H3.88352V18H0.721591ZM17.733 0.545454V18H14.6477V0.545454H17.733ZM26.6158 18.2557C25.3374 18.2557 24.2294 17.9744 23.2919 17.4119C22.3544 16.8494 21.6271 16.0625 21.1101 15.0511C20.5987 14.0398 20.343 12.858 20.343 11.5057C20.343 10.1534 20.5987 8.96875 21.1101 7.9517C21.6271 6.93466 22.3544 6.14489 23.2919 5.58239C24.2294 5.01989 25.3374 4.73864 26.6158 4.73864C27.8942 4.73864 29.0021 5.01989 29.9396 5.58239C30.8771 6.14489 31.6016 6.93466 32.1129 7.9517C32.63 8.96875 32.8885 10.1534 32.8885 11.5057C32.8885 12.858 32.63 14.0398 32.1129 15.0511C31.6016 16.0625 30.8771 16.8494 29.9396 17.4119C29.0021 17.9744 27.8942 18.2557 26.6158 18.2557ZM26.6328 15.7841C27.326 15.7841 27.9055 15.5937 28.3714 15.2131C28.8374 14.8267 29.1839 14.3097 29.4112 13.6619C29.6442 13.0142 29.7607 12.2926 29.7607 11.4972C29.7607 10.696 29.6442 9.97159 29.4112 9.32386C29.1839 8.67045 28.8374 8.15057 28.3714 7.7642C27.9055 7.37784 27.326 7.18466 26.6328 7.18466C25.9226 7.18466 25.3317 7.37784 24.8601 7.7642C24.3942 8.15057 24.0447 8.67045 23.8118 9.32386C23.5845 9.97159 23.4709 10.696 23.4709 11.4972C23.4709 12.2926 23.5845 13.0142 23.8118 13.6619C24.0447 14.3097 24.3942 14.8267 24.8601 15.2131C25.3317 15.5937 25.9226 15.7841 26.6328 15.7841ZM37.8338 18L34.1349 4.90909H37.2798L39.581 14.1136H39.7003L42.0526 4.90909H45.1634L47.5156 14.0625H47.6435L49.9105 4.90909H53.0639L49.3565 18H46.1435L43.6889 9.15341H43.5099L41.0554 18H37.8338ZM66.3572 0.545454H69.5192V11.9489C69.5192 13.1989 69.2237 14.2983 68.6328 15.2472C68.0476 16.196 67.2237 16.9375 66.1612 17.4716C65.0987 18 63.8572 18.2642 62.4368 18.2642C61.0107 18.2642 59.7663 18 58.7038 17.4716C57.6413 16.9375 56.8175 16.196 56.2322 15.2472C55.647 14.2983 55.3544 13.1989 55.3544 11.9489V0.545454H58.5163V11.6847C58.5163 12.4119 58.6754 13.0597 58.9936 13.6278C59.3175 14.196 59.772 14.642 60.3572 14.9659C60.9425 15.2841 61.6357 15.4432 62.4368 15.4432C63.2379 15.4432 63.9311 15.2841 64.5163 14.9659C65.1072 14.642 65.5618 14.196 65.88 13.6278C66.1982 13.0597 66.3572 12.4119 66.3572 11.6847V0.545454ZM72.8196 22.9091V4.90909H75.8537V7.07386H76.0327C76.1918 6.75568 76.4162 6.41761 76.706 6.05966C76.9957 5.69602 77.3878 5.38636 77.8821 5.13068C78.3764 4.86932 79.0071 4.73864 79.7741 4.73864C80.7855 4.73864 81.6974 4.99716 82.5099 5.5142C83.3281 6.02557 83.9759 6.78409 84.4531 7.78977C84.9361 8.78977 85.1776 10.017 85.1776 11.4716C85.1776 12.9091 84.9418 14.1307 84.4702 15.1364C83.9986 16.142 83.3565 16.9091 82.544 17.4375C81.7315 17.9659 80.8111 18.2301 79.7827 18.2301C79.0327 18.2301 78.4105 18.1051 77.9162 17.8551C77.4219 17.6051 77.0241 17.304 76.723 16.9517C76.4276 16.5937 76.1974 16.2557 76.0327 15.9375H75.9048V22.9091H72.8196ZM75.8452 11.4545C75.8452 12.3011 75.9645 13.0426 76.2031 13.679C76.4474 14.3153 76.7969 14.8125 77.2514 15.1705C77.7116 15.5227 78.2685 15.6989 78.9219 15.6989C79.6037 15.6989 80.1747 15.517 80.6349 15.1534C81.0952 14.7841 81.4418 14.2812 81.6747 13.6449C81.9134 13.0028 82.0327 12.2727 82.0327 11.4545C82.0327 10.642 81.9162 9.92045 81.6832 9.28977C81.4503 8.65909 81.1037 8.16477 80.6435 7.80682C80.1832 7.44886 79.6094 7.26989 78.9219 7.26989C78.2628 7.26989 77.7031 7.44318 77.2429 7.78977C76.7827 8.13636 76.4332 8.62216 76.1946 9.24716C75.9616 9.87216 75.8452 10.608 75.8452 11.4545Z" fill="black"/>
</svg>
