<svg width="24" height="24" viewBox="0 0 24 24" fill="none" xmlns="http://www.w3.org/2000/svg">
<path d="M15.96 10.83H12.9L12.14 13.12H14.43C15.27 13.12 15.96 13.8 15.96 14.65C15.96 15.49 15.28 16.18 14.43 16.18H12.14" stroke="#292D32" stroke-width="1.5" stroke-linecap="round" stroke-linejoin="round"/>
<path d="M9.54004 16.17V10.83L8.04004 12.5" stroke="#292D32" stroke-width="1.5" stroke-linecap="round" stroke-linejoin="round"/>
<path d="M10.02 4.46997L12 2" stroke="#292D32" stroke-width="1.5" stroke-linecap="round" stroke-linejoin="round"/>
<path d="M4.90997 7.79999C3.79997 9.27999 3.10999 11.11 3.10999 13.11C3.10999 18.02 7.09 22 12 22C16.91 22 20.89 18.02 20.89 13.11C20.89 8.19999 16.91 4.21997 12 4.21997C11.32 4.21997 10.66 4.31002 10.02 4.46002" stroke="#292D32" stroke-width="1.5" stroke-linecap="round" stroke-linejoin="round"/>
</svg>
