<svg width="24" height="24" viewBox="0 0 24 24" fill="none" xmlns="http://www.w3.org/2000/svg">
<path d="M15.9601 10.83H12.9001L12.1401 13.12H14.4301C15.2701 13.12 15.9601 13.8 15.9601 14.65C15.9601 15.49 15.2801 16.18 14.4301 16.18H12.1401" stroke="#292D32" stroke-width="1.5" stroke-linecap="round" stroke-linejoin="round"/>
<path d="M9.54004 16.17V10.83L8.04004 12.5" stroke="#292D32" stroke-width="1.5" stroke-linecap="round" stroke-linejoin="round"/>
<path d="M13.98 4.46997L12 2" stroke="#292D32" stroke-width="1.5" stroke-linecap="round" stroke-linejoin="round"/>
<path d="M19.09 7.79999C20.2 9.27999 20.89 11.11 20.89 13.11C20.89 18.02 16.91 22 12 22C7.09 22 3.10999 18.02 3.10999 13.11C3.10999 8.19999 7.09 4.21997 12 4.21997C12.68 4.21997 13.34 4.31002 13.98 4.46002" stroke="#292D32" stroke-width="1.5" stroke-linecap="round" stroke-linejoin="round"/>
</svg>
